<svg xmlns="http://www.w3.org/2000/svg" width="48" height="48" viewBox="0 0 48 48" fill="none"><g clip-path="url(#clip0_759_1176)"><path d="M26.7661 27.2925C25.7373 27.4928 24.8425 26.8357 24.0152 26.3122C19.5911 23.5128 15.557 19.0331 15.5692 13.5069C15.5753 10.7371 17.1203 10.0446 17.844 7.65146C18.4913 5.51051 18.9834 6.17273 20.6808 6.13759C22.0081 6.10999 23.213 5.70193 24.3583 5.04319C24.9835 4.68348 25.6043 4.13988 26.3182 4.00138C27.0539 3.97615 27.3947 4.30103 28.0032 4.66869C29.6565 5.66778 31.2888 6.1916 33.2101 6.04158C34.5155 5.93962 34.5801 6.27142 35.0588 7.55635C35.5463 8.86431 35.9713 9.3641 36.6661 10.53C39.1497 14.6975 35.513 20.9774 32.2583 23.9326C31.0163 25.0604 28.4441 26.8693 26.7661 27.2925ZM26.4151 5.50019C24.1135 6.94208 22.1038 7.87534 19.3587 7.55565C19.1394 8.55087 18.8785 9.4057 18.2865 10.2522C17.4416 11.4604 17.0205 12.0768 17.0317 13.6534C17.0659 18.4958 21.0131 22.7682 24.8994 25.153C25.3708 25.4423 25.9884 25.9845 26.5771 25.8193C27.4211 25.5352 28.2321 25.0493 28.9762 24.5638C32.4963 22.2674 35.7988 18.2611 36.015 13.8788C36.1164 11.8251 35.4371 11.4369 34.453 9.79538C34.0204 9.07379 33.7804 8.31656 33.5275 7.5217C32.7614 7.56211 31.9111 7.63994 31.1603 7.44723L30.1024 7.19704C29.1744 6.93295 28.292 6.51437 27.4643 6.02192L26.7289 5.58021C26.6053 5.513 26.5551 5.46137 26.4151 5.50019Z" fill="url(#paint0_linear_759_1176)"></path><path d="M27.0278 22.9325L26.5292 23.045C25.957 23.1122 25.3367 22.7431 24.8539 22.4748C22.1237 20.9577 19.377 18.1 19.0313 14.839C18.8921 13.5252 19.0915 11.9129 19.9525 10.8611C20.4154 10.2955 20.3043 10.6181 21.0376 10.5418C21.0575 9.1023 21.5325 9.33333 22.712 9.09564C23.8218 8.87196 24.8695 8.54174 26.007 8.44504C28.1199 8.381 29.0324 8.70029 31.0861 9.19622C31.3337 9.25598 31.9588 9.87313 31.9588 10.5418C32.9516 10.5418 33.3808 11.1926 33.6032 11.664C34.4463 13.4509 34.0946 15.4654 33.2938 17.2078C32.0993 19.8067 29.6876 21.938 27.0278 22.9325ZM21.5961 11.0073L21.6354 11.0025C21.7463 10.9715 21.5436 11.1261 21.5961 11.033C21.3603 11.0005 21.6773 10.7722 21.5961 11.0073ZM26.4829 9.87313C25.4749 9.92823 22.1058 10.5825 21.3846 11.3836C19.0587 13.9676 21.3868 17.8945 23.5292 19.8052C24.0348 20.2561 25.7474 21.6032 26.3918 21.5501L26.6154 21.5171C29.6207 20.6989 33.4228 16.0997 32.4875 12.7812C31.7251 10.0765 28.8825 9.92456 26.4829 9.87313Z" fill="url(#paint1_linear_759_1176)"></path><path d="M23.9951 17.5877L23.4065 17.0837C22.7819 16.4318 23.4402 14.8592 24.829 16.3245L25.4117 16.9419L27.4198 14.6547C28.0447 13.9239 29.2911 12.1688 30.0711 11.7583C30.5469 11.6907 30.8868 11.8652 30.9209 12.3767C30.9473 12.7717 30.6447 13.0888 30.414 13.3745L26.4463 17.9672C25.3015 19.2824 25.1321 18.601 23.9951 17.5877ZM41.5649 38.4056C39.4221 39.8684 37.1786 41.1302 34.8294 42.2295C30.2955 44.3512 27.5426 44.8192 22.6952 44.0805L15.8219 42.6867C14.4232 42.4011 12.9566 42.2119 11.5312 42.1444L11.3443 43.5438C11.1972 44.5781 11.1394 45.0449 10.0252 44.9229L4.48699 44.4538C4.00159 44.4254 3.50398 44.4242 3.02196 44.3607C1.98821 44.2242 2.19324 43.219 2.15343 42.4368L2.02012 40.5035C1.99124 40.1898 2.0027 39.864 2.00032 39.5485L2.01388 33.1272C2.06462 31.534 2.45992 26.3251 3.1414 25.552C3.36399 25.2994 3.68239 25.3095 3.99216 25.2926L6.24311 25.3171C7.77336 25.4046 9.30521 25.6112 10.8123 25.8868C11.4389 26.0014 13.0715 26.1907 13.2703 26.8968C14.3198 26.6658 15.3178 26.2576 16.3966 26.1384C21.1864 25.6092 22.535 27.8663 26.4895 29.5923C28.2488 30.36 30.2527 30.8224 32.1791 30.8283L33.5833 30.8291C35.2536 30.8267 36.5798 31.2881 36.8054 33.085C37.5944 32.743 38.3476 32.2656 39.1172 31.8769C40.7918 31.0313 42.6188 30.3082 44.4782 30.0175C46.5773 29.6893 49.7731 29.8262 47.6921 32.834C46.1105 35.1198 43.821 36.8327 41.5649 38.4056ZM4.19718 26.7262C3.85544 27.7931 3.74514 29.0353 3.6531 30.1537L3.54379 31.7517C3.52741 31.9892 3.47549 32.2191 3.46576 32.4589L3.46427 40.2498C3.47261 40.5082 3.53972 40.7617 3.54965 41.0221C3.57417 41.6666 3.52562 42.3204 3.58341 42.9625L9.92126 43.4687L10.0794 42.2222L11.9784 30.2593C12.0672 29.9026 12.0598 29.4738 12.0638 29.1071L12.0712 27.6032C11.9129 27.538 11.7563 27.5257 11.5902 27.4962L10.7758 27.3404C9.28406 27.073 7.76711 26.8441 6.25373 26.7533L4.19718 26.7262ZM17.0767 27.5483C16.567 27.6055 13.8889 28.1211 13.4815 28.3935C13.4781 29.8453 13.3902 30.8209 13.1237 32.2624L11.738 40.7305C13.4869 40.8289 15.239 41.0925 16.9548 41.4444L22.713 42.6229C27.945 43.425 30.356 42.7926 35.0269 40.5403C38.938 38.6545 44.6599 35.0829 46.9032 31.4496C46.5609 31.3259 46.2416 31.3254 45.8837 31.3312C43.3343 31.5149 40.9383 32.5031 38.7143 33.7194L35.1587 35.7607C32.5754 37.1165 29.3591 37.1138 26.517 36.7514C26.0032 36.6859 24.1911 36.547 23.8199 36.2423C23.3462 35.8533 23.6332 34.9718 24.2647 34.9919C24.6368 35.0038 25.025 35.0896 25.3949 35.1436L27.3902 35.4039C29.194 35.5951 35.2034 35.7872 35.352 33.0279C35.3787 32.5306 34.5199 32.2327 34.1479 32.2336L31.989 32.252C31.5199 32.2468 31.0201 32.238 30.5598 32.1445L29.1107 31.9214C27.1217 31.5491 25.277 30.6824 23.5412 29.6668C21.1618 28.2748 20.0403 27.4585 17.0767 27.5483Z" fill="url(#paint2_linear_759_1176)"></path><path d="M7.3274 41.8416C4.47697 42.1351 3.85079 37.9145 6.8563 37.5142C7.97433 37.4358 9.05602 38.0974 9.24763 39.26L9.25677 39.3187C9.46685 40.6135 8.5597 41.6189 7.3274 41.8416ZM6.83733 38.9689C5.87597 39.3775 6.29981 40.5819 7.24132 40.3879C8.11769 39.9925 7.88735 38.8367 6.83733 38.9689Z" fill="url(#paint3_linear_759_1176)"></path></g><defs><linearGradient id="paint0_linear_759_1176" x1="26.5284" y1="4" x2="26.5284" y2="27.3294" gradientUnits="userSpaceOnUse"><stop stop-color="#218DB8"></stop><stop offset="1" stop-color="#5D46D2"></stop></linearGradient><linearGradient id="paint1_linear_759_1176" x1="26.54" y1="8.43689" x2="26.54" y2="23.053" gradientUnits="userSpaceOnUse"><stop stop-color="#218DB8"></stop><stop offset="1" stop-color="#5D46D2"></stop></linearGradient><linearGradient id="paint2_linear_759_1176" x1="25.1841" y1="11.7444" x2="25.1841" y2="44.9419" gradientUnits="userSpaceOnUse"><stop stop-color="#218DB8"></stop><stop offset="1" stop-color="#5D46D2"></stop></linearGradient><linearGradient id="paint3_linear_759_1176" x1="7.08192" y1="37.5079" x2="7.08192" y2="41.8562" gradientUnits="userSpaceOnUse"><stop stop-color="#218DB8"></stop><stop offset="1" stop-color="#5D46D2"></stop></linearGradient><clipPath id="clip0_759_1176"><rect width="48" height="48" fill="white"></rect></clipPath></defs></svg>