<svg xmlns="http://www.w3.org/2000/svg" width="48" height="48" viewBox="0 0 48 48" fill="none"><path d="M11.7811 33.8283L16.4882 30.224M14.1536 20.7949L18.8607 24.3979M34.2356 20.7288L29.5285 24.3318M36.601 33.8578L31.8939 30.2547M24.1993 17.8329V11.9205M24.1993 31.4231V34.9705" stroke="url(#paint0_linear_759_1181)" stroke-width="0.999678" stroke-linecap="round" stroke-linejoin="round"></path><path d="M35.2616 38.7108V38.2673C35.2616 37.8417 35.5928 37.4633 35.9713 37.2741C37.0669 36.682 38.1725 36.1085 39.2875 35.5536L41.6907 35.5264C41.8327 35.621 43.2046 36.2359 45.2364 37.3711C45.6149 37.6076 45.7568 37.9859 45.7568 38.4577V38.7381" fill="url(#paint1_linear_759_1181)"></path><path d="M35.2616 38.7108V38.2673C35.2616 37.8417 35.5928 37.4633 35.9713 37.2741C37.0669 36.682 38.1725 36.1085 39.2875 35.5536L41.6907 35.5264C41.8327 35.621 43.2046 36.2359 45.2364 37.3711C45.6149 37.6076 45.7568 37.9859 45.7568 38.4577V38.7381" stroke="url(#paint2_linear_759_1181)" stroke-width="0.999678" stroke-linecap="round" stroke-linejoin="round"></path><path d="M39.2875 35.5537L41.6907 35.5264M40.482 30.1663C39.4767 30.1663 38.669 30.9739 38.669 31.9778V33.7527C38.669 34.7578 39.7026 35.5654 40.482 35.5654C41.2614 35.5654 42.2951 34.7566 42.2951 33.7527V31.979C42.2956 31.7408 42.249 31.5048 42.158 31.2847C42.0671 31.0645 41.9335 30.8646 41.7651 30.6962C41.5966 30.5277 41.3966 30.3942 41.1764 30.3032C40.9562 30.2123 40.7203 30.1658 40.482 30.1663Z" stroke="url(#paint3_linear_759_1181)" stroke-width="0.999678" stroke-linecap="round" stroke-linejoin="round"></path><path d="M36.7556 20.7542V20.3108C36.7556 19.8851 37.0868 19.5068 37.4653 19.3176C38.5609 18.7255 39.6665 18.1519 40.7815 17.5971L43.1847 17.5698C43.3267 17.6644 44.6986 18.2794 46.7305 19.4146C47.1089 19.6511 47.2508 20.0294 47.2508 20.5012V20.7815" fill="url(#paint4_linear_759_1181)"></path><path d="M36.7556 20.7542V20.3108C36.7556 19.8851 37.0868 19.5068 37.4653 19.3176C38.5609 18.7255 39.6665 18.1519 40.7815 17.5971L43.1847 17.5698C43.3267 17.6644 44.6986 18.2794 46.7305 19.4146C47.1089 19.6511 47.2508 20.0294 47.2508 20.5012V20.7815" stroke="url(#paint5_linear_759_1181)" stroke-width="0.999678" stroke-linecap="round" stroke-linejoin="round"></path><path d="M40.7815 17.5971L43.1847 17.5699M41.976 12.2097C40.9707 12.2097 40.163 13.0173 40.163 14.0213V15.7961C40.163 16.8012 41.1966 17.6088 41.976 17.6088C42.7554 17.6088 43.7891 16.8001 43.7891 15.7961V14.0224C43.7896 13.7842 43.743 13.5483 43.652 13.3281C43.5611 13.108 43.4275 12.908 43.2591 12.7396C43.0906 12.5712 42.8906 12.4376 42.6704 12.3467C42.4502 12.2558 42.2143 12.2093 41.976 12.2097Z" stroke="url(#paint6_linear_759_1181)" stroke-width="0.999678" stroke-linecap="round" stroke-linejoin="round"></path><path d="M18.7406 9.29574V8.85231C18.7406 8.42662 19.0718 8.04826 19.4503 7.85907C20.5459 7.26698 21.6515 6.69344 22.7665 6.13861L25.1697 6.11133C25.3117 6.20593 26.6836 6.82089 28.7155 7.95607C29.0939 8.19256 29.2358 8.57089 29.2358 9.0427V9.32302" fill="url(#paint7_linear_759_1181)"></path><path d="M18.7406 9.29574V8.85231C18.7406 8.42662 19.0718 8.04826 19.4503 7.85907C20.5459 7.26698 21.6515 6.69344 22.7665 6.13861L25.1697 6.11133C25.3117 6.20593 26.6836 6.82089 28.7155 7.95607C29.0939 8.19256 29.2358 8.57089 29.2358 9.0427V9.32302" stroke="url(#paint8_linear_759_1181)" stroke-width="0.999678" stroke-linecap="round" stroke-linejoin="round"></path><path d="M22.7665 6.13864L25.1697 6.11136M23.961 0.751224C22.9557 0.751224 22.148 1.55884 22.148 2.56276V4.33764C22.148 5.34275 23.1816 6.15033 23.961 6.15033C24.7404 6.15033 25.7741 5.34156 25.7741 4.33764V2.56392C25.7746 2.32573 25.728 2.08976 25.637 1.86961C25.5461 1.64947 25.4125 1.44954 25.2441 1.28112C25.0756 1.1127 24.8756 0.979141 24.6554 0.888208C24.4352 0.797275 24.1993 0.750757 23.961 0.751224Z" stroke="url(#paint9_linear_759_1181)" stroke-width="0.999678" stroke-linecap="round" stroke-linejoin="round"></path><path d="M1.42314 20.7542V20.3108C1.42314 19.8851 1.7543 19.5068 2.13276 19.3176C3.22844 18.7255 4.33402 18.1519 5.44903 17.5971L7.85225 17.5698C7.99417 17.6644 9.36609 18.2794 11.398 19.4146C11.7764 19.6511 11.9183 20.0294 11.9183 20.5012V20.7815" fill="url(#paint10_linear_759_1181)"></path><path d="M1.42314 20.7542V20.3108C1.42314 19.8851 1.7543 19.5068 2.13276 19.3176C3.22844 18.7255 4.33402 18.1519 5.44903 17.5971L7.85225 17.5698C7.99417 17.6644 9.36609 18.2794 11.398 19.4146C11.7764 19.6511 11.9183 20.0294 11.9183 20.5012V20.7815" stroke="url(#paint11_linear_759_1181)" stroke-width="0.999678" stroke-linecap="round" stroke-linejoin="round"></path><path d="M5.44902 17.5971L7.85224 17.5699M6.64353 12.2097C5.63824 12.2097 4.83046 13.0173 4.83046 14.0213V15.7961C4.83046 16.8012 5.86414 17.6088 6.64353 17.6088C7.42292 17.6088 8.4566 16.8001 8.4566 15.7961V14.0224C8.45707 13.7842 8.41049 13.5483 8.31954 13.3281C8.22859 13.108 8.09505 12.908 7.9266 12.7396C7.75814 12.5712 7.5581 12.4376 7.33792 12.3467C7.11774 12.2558 6.88176 12.2093 6.64353 12.2097Z" stroke="url(#paint12_linear_759_1181)" stroke-width="0.999678" stroke-linecap="round" stroke-linejoin="round"></path><path d="M0.75264 37.9637V37.5203C0.75264 37.0946 1.0838 36.7162 1.46226 36.527C2.55794 35.9349 3.66351 35.3614 4.77853 34.8066L7.18175 34.7793C7.32367 34.8739 8.69559 35.4889 10.7275 36.624C11.1059 36.8605 11.2478 37.2389 11.2478 37.7107V37.991" fill="url(#paint13_linear_759_1181)"></path><path d="M0.75264 37.9637V37.5203C0.75264 37.0946 1.0838 36.7162 1.46226 36.527C2.55794 35.9349 3.66351 35.3614 4.77853 34.8066L7.18175 34.7793C7.32367 34.8739 8.69559 35.4889 10.7275 36.624C11.1059 36.8605 11.2478 37.2389 11.2478 37.7107V37.991" stroke="url(#paint14_linear_759_1181)" stroke-width="0.999678" stroke-linecap="round" stroke-linejoin="round"></path><path d="M4.77852 34.8066L7.18174 34.7793M5.97303 29.4192C4.96774 29.4192 4.15996 30.2268 4.15996 31.2307V33.0056C4.15996 34.0107 5.19364 34.8183 5.97303 34.8183C6.75242 34.8183 7.7861 34.0095 7.7861 33.0056V31.2319C7.78657 30.9937 7.73999 30.7577 7.64904 30.5376C7.55809 30.3174 7.42455 30.1175 7.25609 29.9491C7.08764 29.7807 6.8876 29.6471 6.66742 29.5562C6.44724 29.4652 6.21126 29.4187 5.97303 29.4192Z" stroke="url(#paint15_linear_759_1181)" stroke-width="0.999678" stroke-linecap="round" stroke-linejoin="round"></path><path d="M18.7406 46.3248V45.8814C18.7406 45.4557 19.0718 45.0773 19.4503 44.8881C20.5459 44.296 21.6515 43.7225 22.7665 43.1677L25.1697 43.1404C25.3117 43.235 26.6836 43.8499 28.7155 44.9851C29.0939 45.2216 29.2358 45.5999 29.2358 46.0718V46.3521" fill="url(#paint16_linear_759_1181)"></path><path d="M18.7406 46.3248V45.8814C18.7406 45.4557 19.0718 45.0773 19.4503 44.8881C20.5459 44.296 21.6515 43.7225 22.7665 43.1677L25.1697 43.1404C25.3117 43.235 26.6836 43.8499 28.7155 44.9851C29.0939 45.2216 29.2358 45.5999 29.2358 46.0718V46.3521" stroke="url(#paint17_linear_759_1181)" stroke-width="0.999678" stroke-linecap="round" stroke-linejoin="round"></path><path d="M22.7665 43.1677L25.1697 43.1404M23.961 37.7803C22.9557 37.7803 22.148 38.5879 22.148 39.5918V41.3667C22.148 42.3718 23.1816 43.1794 23.961 43.1794C24.7404 43.1794 25.7741 42.3706 25.7741 41.3667V39.593C25.7746 39.3548 25.728 39.1188 25.637 38.8987C25.5461 38.6785 25.4125 38.4786 25.2441 38.3102C25.0756 38.1417 24.8756 38.0082 24.6554 37.9173C24.4352 37.8263 24.1993 37.7798 23.961 37.7803Z" stroke="url(#paint18_linear_759_1181)" stroke-width="0.999678" stroke-linecap="round" stroke-linejoin="round"></path><path d="M19.0886 29.6163V29.1729C19.0886 28.7472 19.4198 28.3688 19.7983 28.1796C20.8939 27.5875 21.9995 27.014 23.1145 26.4592L25.5177 26.4319C25.6597 26.5265 27.0316 27.1414 29.0635 28.2766C29.4419 28.5131 29.5838 28.8914 29.5838 29.3633V29.6436" stroke="url(#paint19_linear_759_1181)" stroke-width="0.999678" stroke-linecap="round" stroke-linejoin="round"></path><path d="M23.1145 26.4592L25.5177 26.4319M24.309 21.0718C23.3037 21.0718 22.496 21.8794 22.496 22.8833V24.6582C22.496 25.6633 23.5296 26.4709 24.309 26.4709C25.0884 26.4709 26.1221 25.6621 26.1221 24.6582V22.8845C26.1226 22.6463 26.076 22.4103 25.985 22.1902C25.8941 21.97 25.7605 21.7701 25.5921 21.6017C25.4236 21.4333 25.2236 21.2997 25.0034 21.2088C24.7832 21.1178 24.5473 21.0713 24.309 21.0718Z" stroke="url(#paint20_linear_759_1181)" stroke-width="0.999678" stroke-linecap="round" stroke-linejoin="round"></path><defs><linearGradient id="paint0_linear_759_1181" x1="24.191" y1="11.9205" x2="24.191" y2="34.9705" gradientUnits="userSpaceOnUse"><stop stop-color="#218DB8"></stop><stop offset="1" stop-color="#5D46D2"></stop></linearGradient><linearGradient id="paint1_linear_759_1181" x1="40.5092" y1="35.5264" x2="40.5092" y2="38.7381" gradientUnits="userSpaceOnUse"><stop stop-color="#218DB8"></stop><stop offset="1" stop-color="#2480A4"></stop></linearGradient><linearGradient id="paint2_linear_759_1181" x1="40.5092" y1="35.5264" x2="40.5092" y2="38.7381" gradientUnits="userSpaceOnUse"><stop stop-color="#218DB8"></stop><stop offset="1" stop-color="#5D46D2"></stop></linearGradient><linearGradient id="paint3_linear_759_1181" x1="40.482" y1="30.1663" x2="40.482" y2="35.5654" gradientUnits="userSpaceOnUse"><stop stop-color="#218DB8"></stop><stop offset="1" stop-color="#5D46D2"></stop></linearGradient><linearGradient id="paint4_linear_759_1181" x1="42.0032" y1="17.5698" x2="42.0032" y2="20.7815" gradientUnits="userSpaceOnUse"><stop stop-color="#5D46D2"></stop><stop offset="1" stop-color="#5D46D2"></stop></linearGradient><linearGradient id="paint5_linear_759_1181" x1="42.0032" y1="17.5698" x2="42.0032" y2="20.7815" gradientUnits="userSpaceOnUse"><stop stop-color="#218DB8"></stop><stop offset="1" stop-color="#5D46D2"></stop></linearGradient><linearGradient id="paint6_linear_759_1181" x1="41.976" y1="12.2097" x2="41.976" y2="17.6088" gradientUnits="userSpaceOnUse"><stop stop-color="#218DB8"></stop><stop offset="1" stop-color="#5D46D2"></stop></linearGradient><linearGradient id="paint7_linear_759_1181" x1="23.9882" y1="6.11133" x2="23.9882" y2="9.32302" gradientUnits="userSpaceOnUse"><stop stop-color="#218DB8"></stop><stop offset="1" stop-color="#2480A4"></stop></linearGradient><linearGradient id="paint8_linear_759_1181" x1="23.9882" y1="6.11133" x2="23.9882" y2="9.32302" gradientUnits="userSpaceOnUse"><stop stop-color="#218DB8"></stop><stop offset="1" stop-color="#5D46D2"></stop></linearGradient><linearGradient id="paint9_linear_759_1181" x1="23.961" y1="0.751221" x2="23.961" y2="6.15033" gradientUnits="userSpaceOnUse"><stop stop-color="#218DB8"></stop><stop offset="1" stop-color="#5D46D2"></stop></linearGradient><linearGradient id="paint10_linear_759_1181" x1="6.67074" y1="17.5698" x2="6.67074" y2="20.7815" gradientUnits="userSpaceOnUse"><stop stop-color="#5D46D2"></stop><stop offset="1" stop-color="#5D46D2"></stop></linearGradient><linearGradient id="paint11_linear_759_1181" x1="6.67074" y1="17.5698" x2="6.67074" y2="20.7815" gradientUnits="userSpaceOnUse"><stop stop-color="#218DB8"></stop><stop offset="1" stop-color="#5D46D2"></stop></linearGradient><linearGradient id="paint12_linear_759_1181" x1="6.64353" y1="12.2097" x2="6.64353" y2="17.6088" gradientUnits="userSpaceOnUse"><stop stop-color="#218DB8"></stop><stop offset="1" stop-color="#5D46D2"></stop></linearGradient><linearGradient id="paint13_linear_759_1181" x1="6.00024" y1="34.7793" x2="6.00024" y2="37.991" gradientUnits="userSpaceOnUse"><stop stop-color="#218DB8"></stop><stop offset="1" stop-color="#2480A4"></stop></linearGradient><linearGradient id="paint14_linear_759_1181" x1="6.00024" y1="34.7793" x2="6.00024" y2="37.991" gradientUnits="userSpaceOnUse"><stop stop-color="#218DB8"></stop><stop offset="1" stop-color="#5D46D2"></stop></linearGradient><linearGradient id="paint15_linear_759_1181" x1="5.97303" y1="29.4192" x2="5.97303" y2="34.8183" gradientUnits="userSpaceOnUse"><stop stop-color="#218DB8"></stop><stop offset="1" stop-color="#5D46D2"></stop></linearGradient><linearGradient id="paint16_linear_759_1181" x1="23.9882" y1="43.1404" x2="23.9882" y2="46.3521" gradientUnits="userSpaceOnUse"><stop stop-color="#5D46D2"></stop><stop offset="1" stop-color="#5D46D2"></stop></linearGradient><linearGradient id="paint17_linear_759_1181" x1="23.9882" y1="43.1404" x2="23.9882" y2="46.3521" gradientUnits="userSpaceOnUse"><stop stop-color="#218DB8"></stop><stop offset="1" stop-color="#5D46D2"></stop></linearGradient><linearGradient id="paint18_linear_759_1181" x1="23.961" y1="37.7803" x2="23.961" y2="43.1794" gradientUnits="userSpaceOnUse"><stop stop-color="#218DB8"></stop><stop offset="1" stop-color="#5D46D2"></stop></linearGradient><linearGradient id="paint19_linear_759_1181" x1="24.3362" y1="26.4319" x2="24.3362" y2="29.6436" gradientUnits="userSpaceOnUse"><stop stop-color="#218DB8"></stop><stop offset="1" stop-color="#5D46D2"></stop></linearGradient><linearGradient id="paint20_linear_759_1181" x1="24.309" y1="21.0718" x2="24.309" y2="26.4709" gradientUnits="userSpaceOnUse"><stop stop-color="#218DB8"></stop><stop offset="1" stop-color="#5D46D2"></stop></linearGradient></defs></svg>