<svg xmlns="http://www.w3.org/2000/svg" width="48" height="48" viewBox="0 0 48 48" fill="none"><g clip-path="url(#clip0_759_1198)"><path d="M22.23 30.8249C18.99 30.8249 16.35 28.1849 16.35 24.9449C16.35 21.7049 18.99 19.0649 22.23 19.0649C25.47 19.0649 28.11 21.7049 28.11 24.9449C28.11 28.1924 25.47 30.8249 22.23 30.8249ZM22.23 20.5274C21.057 20.5294 19.9327 20.9963 19.1033 21.8257C18.2738 22.6551 17.807 23.7795 17.805 24.9524C17.805 27.3899 19.7925 29.3774 22.23 29.3774C24.6675 29.3774 26.655 27.3899 26.655 24.9524C26.655 22.5074 24.6675 20.5274 22.23 20.5274Z" fill="url(#paint0_linear_759_1198)"></path><path d="M22.23 36.2325C16.0125 36.2325 10.95 31.17 10.95 24.9525C10.95 18.735 16.0125 13.6725 22.23 13.6725C28.4475 13.6725 33.51 18.735 33.51 24.9525C33.51 31.17 28.455 36.2325 22.23 36.2325ZM22.23 15.12C16.8075 15.12 12.405 19.53 12.405 24.945C12.405 30.36 16.815 34.77 22.23 34.77C27.645 34.77 32.055 30.36 32.055 24.945C32.0625 19.53 27.6525 15.12 22.23 15.12Z" fill="url(#paint1_linear_759_1198)"></path><path d="M22.23 41.355C13.185 41.355 5.82751 33.9976 5.82751 24.9526C5.82751 15.9075 13.185 8.55005 22.23 8.55005C31.275 8.55005 38.6325 15.9075 38.6325 24.9526C38.6325 33.9901 31.275 41.355 22.23 41.355ZM22.23 9.99755C13.9875 9.99755 7.28251 16.7025 7.28251 24.945C7.28251 33.1875 13.9875 39.9001 22.23 39.9001C30.4725 39.9001 37.1775 33.1951 37.1775 24.9526C37.1775 16.7101 30.4725 9.99755 22.23 9.99755Z" fill="url(#paint2_linear_759_1198)"></path><path d="M22.23 46.3575C10.425 46.3575 0.817505 36.75 0.817505 24.945C0.817505 13.14 10.425 3.53248 22.23 3.53248C34.035 3.53248 43.6425 13.14 43.6425 24.945C43.6425 36.7575 34.0425 46.3575 22.23 46.3575ZM22.23 4.98748C11.2275 4.98748 2.2725 13.9425 2.2725 24.945C2.2725 35.9475 11.2275 44.9025 22.23 44.9025C33.2325 44.9025 42.1875 35.9475 42.1875 24.945C42.1875 13.9425 33.24 4.98748 22.23 4.98748ZM42.9 8.84248C42.87 8.84248 42.84 8.84248 42.81 8.83498L39.39 8.42248C39.2279 8.40247 39.0771 8.32887 38.9616 8.21337C38.8461 8.09787 38.7725 7.94709 38.7525 7.78498L38.34 4.36498C38.31 4.13998 38.3925 3.92248 38.55 3.76498L42.105 0.209976C42.2017 0.113818 42.3235 0.0467157 42.4564 0.016294C42.5893 -0.0141277 42.7281 -0.00664865 42.857 0.0378812C42.9859 0.0824111 43.0998 0.162206 43.1856 0.268198C43.2714 0.37419 43.3258 0.502129 43.3425 0.637476L43.6875 3.49498L46.545 3.83998C46.6804 3.85671 46.8083 3.91107 46.9143 3.99689C47.0203 4.0827 47.1001 4.19653 47.1446 4.32543C47.1891 4.45434 47.1966 4.59314 47.1662 4.72609C47.1358 4.85903 47.0687 4.98077 46.9725 5.07748L43.4175 8.63248C43.275 8.76748 43.095 8.84248 42.9 8.84248ZM40.1325 7.04998L42.6375 7.35748L44.88 5.11498L42.945 4.88248C42.7832 4.86346 42.6328 4.79 42.5183 4.67415C42.4038 4.5583 42.3321 4.40695 42.315 4.24498L42.075 2.29498L39.8325 4.53748L40.1325 7.04998Z" fill="url(#paint3_linear_759_1198)"></path><path d="M22.23 25.68C22.0861 25.6812 21.9451 25.6395 21.825 25.5602C21.7049 25.481 21.6112 25.3678 21.5556 25.235C21.5001 25.1023 21.4854 24.956 21.5133 24.8149C21.5413 24.6737 21.6106 24.5441 21.7125 24.4425L38.9625 7.19251C39.2475 6.90751 39.705 6.90751 39.99 7.19251C40.275 7.47751 40.275 7.93501 39.99 8.22001L22.74 25.47C22.6041 25.6042 22.421 25.6797 22.23 25.68ZM9.74999 48H5.27999C5.01749 48 4.76999 47.8575 4.64249 47.625C4.57961 47.5119 4.5485 47.3838 4.55246 47.2544C4.55642 47.125 4.5953 46.9991 4.66499 46.89L8.58749 40.6275C8.79749 40.29 9.25499 40.185 9.59249 40.395C9.92999 40.605 10.035 41.055 9.82499 41.4L6.59999 46.545H9.36749L11.865 42.78C12.0825 42.4425 12.54 42.3525 12.87 42.5775C13.2075 42.8025 13.2975 43.2525 13.0725 43.5825L10.3575 47.6775C10.2225 47.88 9.98999 48 9.74999 48ZM39.195 48H34.71C34.47 48 34.2375 47.88 34.1025 47.6775L31.3875 43.5825C31.3346 43.5033 31.298 43.4144 31.2795 43.3209C31.2611 43.2275 31.2613 43.1313 31.2801 43.038C31.2989 42.9446 31.336 42.8559 31.3892 42.7769C31.4423 42.6978 31.5106 42.6301 31.59 42.5775C31.6692 42.5247 31.7581 42.488 31.8516 42.4695C31.945 42.4511 32.0412 42.4513 32.1345 42.4701C32.2279 42.4889 32.3166 42.526 32.3956 42.5792C32.4747 42.6324 32.5424 42.7006 32.595 42.78L35.0925 46.545H37.8675L34.6425 41.4C34.5405 41.2358 34.5078 41.0379 34.5513 40.8495C34.5949 40.6612 34.7113 40.4978 34.875 40.395C35.0392 40.2931 35.2371 40.2603 35.4255 40.3039C35.6138 40.3474 35.7772 40.4638 35.88 40.6275L39.8025 46.89C39.945 47.115 39.9525 47.4 39.825 47.625C39.705 47.8575 39.4575 48 39.195 48Z" fill="url(#paint4_linear_759_1198)"></path></g><defs><linearGradient id="paint0_linear_759_1198" x1="22.23" y1="19.0649" x2="22.23" y2="30.8249" gradientUnits="userSpaceOnUse"><stop stop-color="#218DB8"></stop><stop offset="1" stop-color="#5D46D2"></stop></linearGradient><linearGradient id="paint1_linear_759_1198" x1="22.23" y1="13.6725" x2="22.23" y2="36.2325" gradientUnits="userSpaceOnUse"><stop stop-color="#218DB8"></stop><stop offset="1" stop-color="#5D46D2"></stop></linearGradient><linearGradient id="paint2_linear_759_1198" x1="22.23" y1="8.55005" x2="22.23" y2="41.355" gradientUnits="userSpaceOnUse"><stop stop-color="#218DB8"></stop><stop offset="1" stop-color="#5D46D2"></stop></linearGradient><linearGradient id="paint3_linear_759_1198" x1="24.001" y1="-0.0020752" x2="24.001" y2="46.3575" gradientUnits="userSpaceOnUse"><stop stop-color="#218DB8"></stop><stop offset="1" stop-color="#5D46D2"></stop></linearGradient><linearGradient id="paint4_linear_759_1198" x1="22.3779" y1="6.97876" x2="22.3779" y2="48" gradientUnits="userSpaceOnUse"><stop stop-color="#218DB8"></stop><stop offset="1" stop-color="#5D46D2"></stop></linearGradient><clipPath id="clip0_759_1198"><rect width="48" height="48" fill="white"></rect></clipPath></defs></svg>