<svg xmlns="http://www.w3.org/2000/svg" width="48" height="48" viewBox="0 0 48 48" fill="none"><path d="M46 0H42.9333V36.8H46V0Z" fill="url(#paint0_linear_759_1217)"></path><path d="M36.8 42.9333H0V46H36.8V42.9333Z" fill="url(#paint1_linear_759_1217)"></path><path d="M9.20009 24.5333H6.13342V39.8667H9.20009V24.5333Z" fill="url(#paint2_linear_759_1217)"></path><path d="M18.4 15.3333H15.3333V39.8666H18.4V15.3333Z" fill="url(#paint3_linear_759_1217)"></path><path d="M27.5999 6.13318H24.5333V18.3998H27.5999V6.13318Z" fill="url(#paint4_linear_759_1217)"></path><path d="M36.8 0H33.7333V18.4H36.8V0Z" fill="url(#paint5_linear_759_1217)"></path><path d="M30.6667 39.8666C28.8472 39.8666 27.0684 39.327 25.5555 38.3161C24.0426 37.3052 22.8634 35.8683 22.167 34.1872C21.4707 32.5062 21.2885 30.6564 21.6435 28.8717C21.9985 27.0871 22.8747 25.4478 24.1614 24.1612C25.448 22.8745 27.0873 21.9983 28.8719 21.6433C30.6565 21.2883 32.5063 21.4705 34.1874 22.1669C35.8685 22.8632 37.3054 24.0424 38.3163 25.5553C39.3272 27.0682 39.8667 28.847 39.8667 30.6666C39.8667 33.1065 38.8975 35.4466 37.1721 37.1719C35.4468 38.8973 33.1067 39.8666 30.6667 39.8666ZM30.6667 24.5332C29.4537 24.5332 28.2679 24.8929 27.2592 25.5669C26.2506 26.2408 25.4645 27.1987 25.0003 28.3194C24.5361 29.4402 24.4146 30.6734 24.6513 31.8631C24.8879 33.0529 25.4721 34.1457 26.3298 35.0035C27.1876 35.8612 28.2804 36.4454 29.4702 36.682C30.6599 36.9187 31.8931 36.7972 33.0139 36.333C34.1346 35.8688 35.0925 35.0827 35.7664 34.0741C36.4404 33.0654 36.8001 31.8796 36.8001 30.6666C36.8001 29.0399 36.1539 27.4799 35.0037 26.3296C33.8534 25.1794 32.2934 24.5332 30.6667 24.5332Z" fill="url(#paint6_linear_759_1217)"></path><path d="M36.3411 34.1855L34.1727 36.354L43.3669 45.5483L45.5354 43.3798L36.3411 34.1855Z" fill="url(#paint7_linear_759_1217)"></path><defs><linearGradient id="paint0_linear_759_1217" x1="44.4667" y1="0" x2="44.4667" y2="36.8" gradientUnits="userSpaceOnUse"><stop stop-color="#2BB7EF"></stop><stop offset="1" stop-color="#5D46D2"></stop></linearGradient><linearGradient id="paint1_linear_759_1217" x1="18.4" y1="42.9333" x2="18.4" y2="46" gradientUnits="userSpaceOnUse"><stop stop-color="#2BB7EF"></stop><stop offset="1" stop-color="#5D46D2"></stop></linearGradient><linearGradient id="paint2_linear_759_1217" x1="7.66676" y1="24.5333" x2="7.66676" y2="39.8667" gradientUnits="userSpaceOnUse"><stop stop-color="#2BB7EF"></stop><stop offset="1" stop-color="#5D46D2"></stop></linearGradient><linearGradient id="paint3_linear_759_1217" x1="16.8666" y1="15.3333" x2="16.8666" y2="39.8666" gradientUnits="userSpaceOnUse"><stop stop-color="#2BB7EF"></stop><stop offset="1" stop-color="#5D46D2"></stop></linearGradient><linearGradient id="paint4_linear_759_1217" x1="26.0666" y1="6.13318" x2="26.0666" y2="18.3998" gradientUnits="userSpaceOnUse"><stop stop-color="#2BB7EF"></stop><stop offset="1" stop-color="#5D46D2"></stop></linearGradient><linearGradient id="paint5_linear_759_1217" x1="35.2667" y1="0" x2="35.2667" y2="18.4" gradientUnits="userSpaceOnUse"><stop stop-color="#2BB7EF"></stop><stop offset="1" stop-color="#5D46D2"></stop></linearGradient><linearGradient id="paint6_linear_759_1217" x1="30.6667" y1="21.4666" x2="30.6667" y2="39.8666" gradientUnits="userSpaceOnUse"><stop stop-color="#2BB7EF"></stop><stop offset="1" stop-color="#5D46D2"></stop></linearGradient><linearGradient id="paint7_linear_759_1217" x1="35.2569" y1="35.2698" x2="44.4512" y2="44.464" gradientUnits="userSpaceOnUse"><stop stop-color="#2BB7EF"></stop><stop offset="1" stop-color="#5D46D2"></stop></linearGradient></defs></svg>