<svg xmlns="http://www.w3.org/2000/svg" width="48" height="48" viewBox="0 0 48 48" fill="none"><path d="M19.4944 33.0524H2.74032C2.10493 33.0515 1.49581 32.7987 1.04634 32.3496C0.596877 31.9005 0.343681 31.2916 0.342194 30.6562V3.6712C0.342938 3.0354 0.595836 2.42586 1.04541 1.97629C1.49498 1.52671 2.10452 1.27382 2.74032 1.27307H38.7188C39.3547 1.27357 39.9645 1.52636 40.4143 1.97596C40.8641 2.42556 41.1171 3.03524 41.1178 3.6712V17.3259C41.1109 17.5238 41.0274 17.7112 40.885 17.8488C40.7425 17.9863 40.5522 18.0632 40.3542 18.0632C40.1562 18.0632 39.9659 17.9863 39.8235 17.8488C39.6811 17.7112 39.5976 17.5238 39.5906 17.3259V3.6712C39.5904 3.44004 39.4985 3.21842 39.335 3.05496C39.1715 2.89151 38.9499 2.79957 38.7188 2.79932H2.74032C2.50916 2.79957 2.28754 2.89151 2.12408 3.05496C1.96063 3.21842 1.86869 3.44004 1.86844 3.6712V30.6562C1.86869 30.8874 1.96063 31.109 2.12408 31.2724C2.28754 31.4359 2.50916 31.5278 2.74032 31.5281H19.4944C19.6968 31.5281 19.8909 31.6085 20.034 31.7516C20.1771 31.8947 20.2575 32.0888 20.2575 32.2912C20.2575 32.4936 20.1771 32.6877 20.034 32.8308C19.8909 32.9739 19.6968 33.0543 19.4944 33.0543V33.0524Z" fill="url(#paint0_linear_759_1208)"></path><path d="M40.3538 10.9753H1.10532C0.902925 10.9753 0.708821 10.8949 0.565708 10.7518C0.422594 10.6087 0.342194 10.4146 0.342194 10.2122C0.342194 10.0098 0.422594 9.81566 0.565708 9.67255C0.708821 9.52943 0.902925 9.44903 1.10532 9.44903H40.3538C40.5562 9.44903 40.7503 9.52943 40.8934 9.67255C41.0365 9.81566 41.1169 10.0098 41.1169 10.2122C41.1169 10.4146 41.0365 10.6087 40.8934 10.7518C40.7503 10.8949 40.5562 10.9753 40.3538 10.9753ZM6.82876 6.88685H5.19376C4.99136 6.88685 4.79726 6.80645 4.65415 6.66333C4.51103 6.52022 4.43063 6.32611 4.43063 6.12372C4.43063 5.92133 4.51103 5.72722 4.65415 5.58411C4.79726 5.441 4.99136 5.3606 5.19376 5.3606H6.82876C7.03115 5.3606 7.22525 5.441 7.36837 5.58411C7.51148 5.72722 7.59188 5.92133 7.59188 6.12372C7.59188 6.32611 7.51148 6.52022 7.36837 6.66333C7.22525 6.80645 7.03115 6.88685 6.82876 6.88685ZM36.2653 6.88685H18.2813C18.0789 6.88685 17.8848 6.80645 17.7416 6.66333C17.5985 6.52022 17.5181 6.32611 17.5181 6.12372C17.5181 5.92133 17.5985 5.72722 17.7416 5.58411C17.8848 5.441 18.0789 5.3606 18.2813 5.3606H36.2653C36.4677 5.3606 36.6618 5.441 36.8049 5.58411C36.948 5.72722 37.0284 5.92133 37.0284 6.12372C37.0284 6.32611 36.948 6.52022 36.8049 6.66333C36.6618 6.80645 36.4677 6.88685 36.2653 6.88685ZM11.7347 6.88685H10.0997C9.8973 6.88685 9.7032 6.80645 9.56008 6.66333C9.41697 6.52022 9.33657 6.32611 9.33657 6.12372C9.33657 5.92133 9.41697 5.72722 9.56008 5.58411C9.7032 5.441 9.8973 5.3606 10.0997 5.3606H11.7347C11.9371 5.3606 12.1312 5.441 12.2743 5.58411C12.4174 5.72722 12.4978 5.92133 12.4978 6.12372C12.4978 6.32611 12.4174 6.52022 12.2743 6.66333C12.1312 6.80645 11.9371 6.88685 11.7347 6.88685ZM36.2653 19.6978H14.1881C13.9862 19.6978 13.7925 19.6178 13.6495 19.4753C13.5065 19.3328 13.4258 19.1394 13.425 18.9375V14.3006C13.425 14.0982 13.5054 13.9041 13.6485 13.761C13.7916 13.6179 13.9857 13.5375 14.1881 13.5375H36.2653C36.4676 13.5377 36.6616 13.6182 36.8047 13.7613C36.9477 13.9043 37.0282 14.0983 37.0284 14.3006V18.9375C37.0275 19.1393 36.9466 19.3325 36.8037 19.475C36.6607 19.6174 36.4672 19.6975 36.2653 19.6978ZM14.9513 18.1706H35.5022V15.0637H14.9513V18.1706ZM19.6163 23.0118H14.1881C13.9857 23.0118 13.7916 22.9314 13.6485 22.7883C13.5054 22.6452 13.425 22.4511 13.425 22.2487C13.425 22.0463 13.5054 21.8522 13.6485 21.7091C13.7916 21.566 13.9857 21.4856 14.1881 21.4856H19.6163C19.8187 21.4856 20.0128 21.566 20.1559 21.7091C20.299 21.8522 20.3794 22.0463 20.3794 22.2487C20.3794 22.4511 20.299 22.6452 20.1559 22.7883C20.0128 22.9314 19.8187 23.0118 19.6163 23.0118ZM33.2072 23.0118H23.1759C22.9736 23.0118 22.7794 22.9314 22.6363 22.7883C22.4932 22.6452 22.4128 22.4511 22.4128 22.2487C22.4128 22.0463 22.4932 21.8522 22.6363 21.7091C22.7794 21.566 22.9736 21.4856 23.1759 21.4856H33.2072C33.4096 21.4856 33.6037 21.566 33.7468 21.7091C33.8899 21.8522 33.9703 22.0463 33.9703 22.2487C33.9703 22.4511 33.8899 22.6452 33.7468 22.7883C33.6037 22.9314 33.4096 23.0118 33.2072 23.0118ZM26.9681 26.3315H14.1881C13.9857 26.3315 13.7916 26.2511 13.6485 26.108C13.5054 25.9649 13.425 25.7708 13.425 25.5684C13.425 25.366 13.5054 25.1719 13.6485 25.0288C13.7916 24.8857 13.9857 24.8053 14.1881 24.8053H26.9681C27.1705 24.8053 27.3646 24.8857 27.5077 25.0288C27.6509 25.1719 27.7313 25.366 27.7313 25.5684C27.7313 25.7708 27.6509 25.9649 27.5077 26.108C27.3646 26.2511 27.1705 26.3315 26.9681 26.3315ZM10.9172 26.3297H5.19844C4.99605 26.3297 4.80195 26.2493 4.65883 26.1061C4.51572 25.963 4.43532 25.7689 4.43532 25.5665V14.3006C4.43532 14.0982 4.51572 13.9041 4.65883 13.761C4.80195 13.6179 4.99605 13.5375 5.19844 13.5375H10.9219C11.1243 13.5375 11.3184 13.6179 11.4615 13.761C11.6046 13.9041 11.685 14.0982 11.685 14.3006V25.5665C11.685 25.6671 11.6651 25.7668 11.6265 25.8597C11.5878 25.9525 11.5312 26.0369 11.4598 26.1078C11.3885 26.1787 11.3038 26.2348 11.2107 26.2729C11.1175 26.311 11.0178 26.3303 10.9172 26.3297ZM5.95688 24.8034H10.1541V15.0637H5.95688V24.8034ZM42.7191 41.1722C42.3545 41.1715 42.0012 41.045 41.7191 40.8141C41.4369 40.5832 41.2431 40.2619 41.1703 39.9047L37.5553 22.0312C37.5141 21.8278 37.5134 21.6182 37.5532 21.4145C37.593 21.2108 37.6726 21.0169 37.7873 20.8439C37.9021 20.6709 38.0498 20.5222 38.222 20.4063C38.3942 20.2904 38.5875 20.2096 38.7909 20.1684L40.3941 19.844C40.8049 19.7614 41.2317 19.845 41.581 20.0767C41.9302 20.3083 42.1733 20.669 42.2569 21.0797L45.8719 38.954C45.9131 39.1575 45.9138 39.367 45.874 39.5708C45.8342 39.7745 45.7546 39.9684 45.6399 40.1414C45.5251 40.3143 45.3775 40.463 45.2053 40.5789C45.0331 40.6948 44.8397 40.7757 44.6363 40.8168L43.0313 41.1403C42.9285 41.1614 42.8239 41.1721 42.7191 41.1722ZM40.7072 21.3384H40.6969L39.0938 21.6637C39.0866 21.6649 39.0798 21.6676 39.0738 21.6716C39.0678 21.6757 39.0628 21.681 39.0591 21.6872C39.0551 21.693 39.0524 21.6996 39.0511 21.7065C39.0499 21.7135 39.05 21.7206 39.0516 21.7275L42.6666 39.6018C42.6679 39.6089 42.6706 39.6156 42.6746 39.6215C42.6785 39.6275 42.6836 39.6326 42.6895 39.6366C42.6954 39.6406 42.7021 39.6434 42.7091 39.6449C42.7161 39.6463 42.7233 39.6463 42.7303 39.645L44.3334 39.3206C44.3406 39.3194 44.3473 39.3167 44.3533 39.3126C44.3593 39.3086 44.3644 39.3033 44.3681 39.2972C44.3721 39.2913 44.3749 39.2848 44.3764 39.2778C44.3778 39.2709 44.3779 39.2638 44.3766 39.2568L40.7606 21.3815C40.7582 21.3692 40.7515 21.3581 40.7418 21.3503C40.732 21.3424 40.7198 21.3382 40.7072 21.3384Z" fill="url(#paint1_linear_759_1208)"></path><path d="M41.8219 40.0406C41.7393 40.0404 41.6573 40.0268 41.5791 40.0003C36.997 38.4842 32.1489 37.9414 27.345 38.4065C27.1809 38.4225 27.0178 38.4309 26.8556 38.4309C25.6722 38.4366 24.5263 38.0162 23.6273 37.2465C22.7283 36.4768 22.1364 35.4093 21.9597 34.2392C21.783 33.069 22.0334 31.8743 22.665 30.8735C23.2966 29.8728 24.2673 29.1327 25.3997 28.7887C30.0068 27.3496 34.2626 24.9643 37.8947 21.7856C37.969 21.7154 38.0567 21.6609 38.1526 21.6253C38.2484 21.5897 38.3504 21.5737 38.4525 21.5783C38.5547 21.5828 38.6548 21.6079 38.7471 21.6519C38.8394 21.696 38.9219 21.7581 38.9896 21.8346C39.0574 21.9111 39.1092 22.0005 39.1417 22.0974C39.1743 22.1943 39.1871 22.2968 39.1793 22.3987C39.1716 22.5006 39.1434 22.6 39.0965 22.6908C39.0496 22.7816 38.9849 22.8621 38.9063 22.9275C35.113 26.2467 30.6684 28.7373 25.8572 30.24C25.0444 30.4837 24.3519 31.0223 23.9157 31.7501C23.4794 32.478 23.3308 33.3425 23.499 34.1743C23.6672 35.006 24.1401 35.7449 24.8249 36.246C25.5097 36.7472 26.357 36.9744 27.2006 36.8831C32.2181 36.3981 37.2815 36.9665 42.0666 38.5519C42.2384 38.6093 42.3842 38.7261 42.4779 38.8812C42.5716 39.0363 42.607 39.2198 42.5778 39.3986C42.5485 39.5775 42.4566 39.7401 42.3185 39.8574C42.1803 39.9746 42.005 40.0389 41.8238 40.0387L41.8219 40.0406Z" fill="url(#paint2_linear_759_1208)"></path><path d="M31.0012 38.2443C30.8247 38.2448 30.6535 38.184 30.5167 38.0724C30.38 37.9608 30.2862 37.8052 30.2512 37.6322L28.3762 28.3659C28.3422 28.1701 28.3859 27.9688 28.498 27.8047C28.6101 27.6406 28.7818 27.5267 28.9766 27.4873C29.1714 27.4478 29.3739 27.4859 29.541 27.5934C29.7082 27.701 29.8267 27.8695 29.8716 28.0631L31.7466 37.3303C31.7689 37.4412 31.7664 37.5558 31.739 37.6656C31.7117 37.7754 31.6603 37.8778 31.5885 37.9653C31.5167 38.0528 31.4263 38.1232 31.3239 38.1715C31.2216 38.2197 31.1097 38.2446 30.9966 38.2443H31.0012ZM29.0859 46.7278C28.5801 46.7275 28.0876 46.566 27.6798 46.2667C27.272 45.9675 26.9702 45.5461 26.8181 45.0637C26.8181 45.0534 26.8116 45.0422 26.8087 45.0318L24.8269 37.6518C24.7744 37.4563 24.8018 37.2479 24.903 37.0725C25.0041 36.8971 25.1708 36.7691 25.3664 36.7167C25.562 36.6642 25.7703 36.6916 25.9457 36.7928C26.1211 36.894 26.2491 37.0607 26.3016 37.2562L28.2778 44.6165C28.3446 44.8139 28.4813 44.98 28.6621 45.0836C28.8429 45.1872 29.0553 45.2211 29.2594 45.179C29.3778 45.1555 29.49 45.1072 29.5884 45.0372C29.6868 44.9672 29.7693 44.8772 29.8304 44.7731C29.8915 44.6689 29.9299 44.553 29.943 44.4329C29.956 44.3129 29.9435 44.1914 29.9062 44.0765L29.895 44.0362L28.1906 37.724C28.1645 37.6273 28.1577 37.5263 28.1707 37.4269C28.1836 37.3275 28.2159 37.2316 28.2659 37.1448C28.3159 37.0579 28.3825 36.9817 28.4619 36.9206C28.5413 36.8594 28.632 36.8145 28.7287 36.7884C28.8255 36.7623 28.9265 36.7555 29.0259 36.7684C29.1253 36.7814 29.2211 36.8137 29.308 36.8637C29.3949 36.9137 29.4711 36.9803 29.5322 37.0597C29.5934 37.1391 29.6383 37.2298 29.6644 37.3265L31.3631 43.62C31.4649 43.9389 31.4983 44.2758 31.4612 44.6085C31.424 44.9413 31.3172 45.2625 31.1477 45.5512C30.9781 45.8399 30.7496 46.0896 30.4771 46.2841C30.2045 46.4786 29.8941 46.6135 29.5659 46.68C29.4079 46.7117 29.2471 46.7277 29.0859 46.7278ZM44.025 34.4372C43.8358 34.437 43.6533 34.3666 43.5131 34.2395C43.3729 34.1124 43.2849 33.9377 43.2662 33.7494C43.2475 33.5611 43.2994 33.3725 43.4119 33.2204C43.5244 33.0682 43.6895 32.9632 43.875 32.9259C44.2372 32.8527 44.5814 32.7088 44.888 32.5025C45.1946 32.2962 45.4576 32.0315 45.6619 31.7236C45.8662 31.4157 46.0079 31.0706 46.0788 30.7079C46.1498 30.3453 46.1486 29.9722 46.0753 29.61C46.0021 29.2478 45.8582 28.9035 45.6519 28.5969C45.4456 28.2903 45.181 28.0274 44.873 27.8231C44.5651 27.6187 44.22 27.4771 43.8573 27.4061C43.4947 27.3352 43.1216 27.3364 42.7594 27.4097C42.6609 27.4295 42.5595 27.4297 42.4609 27.4103C42.3623 27.3909 42.2685 27.3523 42.1848 27.2967C42.1012 27.2411 42.0293 27.1695 41.9733 27.0861C41.9173 27.0027 41.8783 26.9091 41.8584 26.8106C41.8386 26.7121 41.8384 26.6107 41.8578 26.5121C41.8771 26.4135 41.9157 26.3197 41.9714 26.2361C42.027 26.1524 42.0986 26.0805 42.182 26.0245C42.2654 25.9685 42.359 25.9295 42.4575 25.9097C43.5814 25.6927 44.7454 25.9284 45.6963 26.5655C46.6473 27.2026 47.308 28.1895 47.5349 29.3114C47.7617 30.4333 47.5362 31.5994 46.9075 32.5559C46.2788 33.5123 45.2977 34.1817 44.1778 34.4184C44.1276 34.4298 44.0764 34.4361 44.025 34.4372Z" fill="url(#paint3_linear_759_1208)"></path><defs><linearGradient id="paint0_linear_759_1208" x1="20.73" y1="1.27307" x2="20.73" y2="33.0543" gradientUnits="userSpaceOnUse"><stop stop-color="#218DB8"></stop><stop offset="1" stop-color="#5D46D2"></stop></linearGradient><linearGradient id="paint1_linear_759_1208" x1="23.1227" y1="5.3606" x2="23.1227" y2="41.1722" gradientUnits="userSpaceOnUse"><stop stop-color="#218DB8"></stop><stop offset="1" stop-color="#5D46D2"></stop></linearGradient><linearGradient id="paint2_linear_759_1208" x1="32.2461" y1="21.5775" x2="32.2461" y2="40.0406" gradientUnits="userSpaceOnUse"><stop stop-color="#218DB8"></stop><stop offset="1" stop-color="#5D46D2"></stop></linearGradient><linearGradient id="paint3_linear_759_1208" x1="36.2109" y1="25.8309" x2="36.2109" y2="46.7278" gradientUnits="userSpaceOnUse"><stop stop-color="#218DB8"></stop><stop offset="1" stop-color="#5D46D2"></stop></linearGradient></defs></svg>